subject_01
version=1
nRows=388
nColumns=3
inDegrees=yes
endheader
time	r_shoulder_elev	r_elbow_flex
68.8100	10.112413	56.377077
68.8200	10.112413	55.461306
68.8300	10.112413	54.579528
68.8400	10.112413	53.686043
68.8500	10.112413	52.741772
68.8600	10.112413	51.728716
68.8700	10.112413	50.657296
68.8800	10.112413	49.564307
68.8900	10.112413	48.502195
68.9000	10.112413	47.523059
68.9100	10.112413	46.662391
68.9200	10.112413	45.927581
68.9300	10.112413	45.294730
68.9400	10.112413	44.714716
68.9500	10.112413	44.126667
68.9600	10.112413	43.474748
68.9700	10.112413	42.723252
68.9800	10.112413	41.865586
68.9900	10.112413	40.924668
69.0000	10.112413	39.944906
69.0100	10.112413	38.978482
69.0200	10.112413	38.070309
69.0300	10.112413	37.246296
69.0400	10.112413	36.508395
69.0500	10.112413	35.837656
69.0600	10.112413	35.203925
69.0700	10.112413	34.578705
69.0800	10.112413	33.946720
69.0900	10.112413	33.312171
69.1000	10.112413	32.697426
69.1100	10.112413	32.134425
69.1200	10.112413	31.651511
69.1300	10.112413	31.260085
69.1400	10.112413	30.945736
69.1500	10.112413	30.667295
69.1600	10.112413	30.364913
69.1700	10.112413	29.975435
69.1800	10.112413	29.450942
69.1900	10.112413	28.775082
69.2000	10.112413	27.972101
69.2100	10.112413	27.105367
69.2200	10.112413	26.265017
69.2300	10.112413	25.547461
69.2400	10.112413	25.031900
69.2500	10.112413	24.760003
69.2600	10.112413	24.724248
69.2700	10.112413	24.868198
69.2800	10.112413	25.098835
69.2900	10.112413	25.307912
69.3000	10.112413	25.396881
69.3100	10.112413	25.299096
69.3200	10.112413	24.993797
69.3300	10.112413	24.508649
69.3400	10.112413	23.910665
69.3500	10.112413	23.288353
69.3600	10.112413	22.730048
69.3700	10.112413	22.304088
69.3800	10.112413	22.045627
69.3900	10.112413	21.952827
69.4000	10.112413	21.992427
69.4100	10.112413	22.112249
69.4200	10.112413	22.256541
69.4300	10.112413	22.379729
69.4400	10.112413	22.455064
69.4500	10.112413	22.476535
69.4600	10.112413	22.454530
69.4700	10.112413	22.407568
69.4800	10.112413	22.353327
69.4900	10.112413	22.302039
69.5000	10.112413	22.254184
69.5100	10.112413	22.202782
69.5200	10.112413	22.138910
69.5300	10.112413	22.058012
69.5400	10.112413	21.964401
69.5500	10.112413	21.872059
69.5600	10.112413	21.801207
69.5700	10.112413	21.771856
69.5800	10.112413	21.796639
69.5900	10.112413	21.875240
69.6000	10.112413	21.992105
69.6100	10.112413	22.119613
69.6200	10.112413	22.225504
69.6300	10.112413	22.282481
69.6400	10.112413	22.277023
69.6500	10.112413	22.214544
69.6600	10.112413	22.119029
69.6700	10.112413	22.026911
69.6800	10.112413	21.976682
69.6900	10.112413	21.997167
69.7000	10.112413	22.097854
69.7100	10.112413	22.264286
69.7200	10.112413	22.460112
69.7300	10.112413	22.635557
69.7400	10.112413	22.740232
69.7500	10.112413	22.736917
69.7600	10.112413	22.612588
69.7700	10.112413	22.383722
69.7800	10.112413	22.094367
69.7900	10.112413	21.806898
69.8000	10.112413	21.588122
69.8100	10.112413	21.494046
69.8200	10.112413	21.556945
69.8300	10.112413	21.777742
69.8400	10.112413	22.125381
69.8500	10.112413	22.543110
69.8600	10.112413	22.960038
69.8700	10.112413	23.305227
69.8800	10.112413	23.521270
69.8900	10.112413	23.574660
69.9000	10.112413	23.461229
69.9100	10.112413	23.206078
69.9200	10.112413	22.858559
69.9300	10.112413	22.483612
69.9400	10.112413	22.151161
69.9500	10.112413	21.925270
69.9600	10.112413	21.854473
69.9700	10.112413	21.964416
69.9800	10.112413	22.253598
69.9900	10.112413	22.692772
70.0000	10.112413	23.228325
70.0100	10.112413	23.789575
70.0200	10.112413	24.299446
70.0300	10.112413	24.687294
70.0400	10.112413	24.901940
70.0500	10.112413	24.922500
70.0600	10.112413	24.764504
70.0700	10.112413	24.479336
70.0800	10.112413	24.146249
70.0900	10.112413	23.857774
70.1000	10.112413	23.701115
70.1100	10.112413	23.739384
70.1200	10.112413	23.997093
70.1300	10.112413	24.453660
70.1400	10.112413	25.047083
70.1500	10.112413	25.687508
70.1600	10.112413	26.277887
70.1700	10.112413	26.736891
70.1800	10.112413	27.018411
70.1900	10.112413	27.122537
70.2000	10.112413	27.094948
70.2100	10.112413	27.014581
70.2200	10.112413	26.972592
70.2300	10.112413	27.048053
70.2400	10.112413	27.286891
70.2500	10.112413	27.689860
70.2600	10.112413	28.212971
70.2700	10.112413	28.780462
70.2800	10.112413	29.306826
70.2900	10.112413	29.721839
70.3000	10.112413	29.991500
70.3100	10.112413	30.128797
70.3200	10.112413	30.190971
70.3300	10.112413	30.263741
70.3400	10.112413	30.436690
70.3500	10.112413	30.776700
70.3600	10.112413	31.307072
70.3700	10.112413	31.998546
70.3800	10.112413	32.775241
70.3900	10.112413	33.534300
70.4000	10.112413	34.174097
70.4100	10.112413	34.623233
70.4200	10.112413	34.862105
70.4300	10.112413	34.930681
70.4400	10.112413	34.919846
70.4500	10.112413	34.948239
70.4600	10.112413	35.130632
70.4700	10.112413	35.546419
70.4800	10.112413	36.216937
70.4900	10.112413	37.098103
70.5000	10.112413	38.090676
70.5100	10.112413	39.065679
70.5200	10.112413	39.898269
70.5300	10.112413	40.500950
70.5400	10.112413	40.847144
70.5500	10.112413	40.978671
70.5600	10.112413	40.995066
70.5700	10.112413	41.027592
70.5800	10.112413	41.204941
70.5900	10.112413	41.619844
70.6000	10.112413	42.305476
70.6100	10.112413	43.227814
70.6200	10.112413	44.295709
70.6300	10.112413	45.385625
70.6400	10.112413	46.374127
70.6500	10.112413	47.169274
70.6600	10.112413	47.732606
70.6700	10.112413	48.086254
70.6800	10.112413	48.303882
70.6900	10.112413	48.488634
70.7000	10.112413	48.744648
70.7100	10.112413	49.150172
70.7200	10.112413	49.739469
70.7300	10.112413	50.497915
70.7400	10.112413	51.370765
70.7500	10.112413	52.282205
70.7600	10.112413	53.158598
70.7700	10.112413	53.948977
70.7800	10.112413	54.637050
70.7900	10.112413	55.241811
70.8000	10.112413	55.807359
70.8100	10.112413	56.385740
70.8200	10.112413	57.018520
70.8300	10.112413	57.722924
70.8400	10.112413	58.486694
70.8500	10.112413	59.272992
70.8600	10.112413	60.033467
70.8700	10.112413	60.725145
70.8800	10.112413	61.325653
70.8900	10.112413	61.841959
70.9000	10.112413	62.309849
70.9100	10.112413	62.784309
70.9200	10.112413	63.323760
70.9300	10.112413	63.972967
70.9400	10.112413	64.749811
70.9500	10.112413	65.639866
70.9600	10.112413	66.600335
70.9700	10.112413	67.572024
70.9800	10.112413	68.495675
70.9900	10.112413	69.327712
71.0000	10.112413	70.050775
71.0100	10.112413	70.676124
71.0200	10.112413	71.237549
71.0300	10.112413	71.779049
71.0400	10.112413	72.340426
71.0500	10.112413	72.945425
71.0600	10.112413	73.596177
71.0700	10.112413	74.275513
71.0800	10.112413	74.956164
71.0900	10.112413	75.613551
71.1000	10.112413	76.237669
71.1100	10.112413	76.839780
71.1200	10.112413	77.451280
71.1300	10.112413	78.114619
71.1400	10.112413	78.868824
71.1500	10.112413	79.734070
71.1600	10.112413	80.700385
71.1700	10.112413	81.724557
71.1800	10.112413	82.737029
71.1900	10.112413	83.657632
71.2000	10.112413	84.416228
71.2100	10.112413	84.972676
71.2200	10.112413	85.330379
71.2300	10.112413	85.539236
71.2400	10.112413	85.686599
71.2500	10.112413	85.878107
71.2600	10.112413	86.213104
71.2700	10.112413	86.760893
71.2800	10.112413	87.543986
71.2900	10.112413	88.532659
71.3000	10.112413	89.652175
71.3100	10.112413	90.800708
71.3200	10.112413	91.873269
71.3300	10.112413	92.785466
71.3400	10.112413	93.491224
71.3500	10.112413	93.990371
71.3600	10.112413	94.324803
71.3700	10.112413	94.564991
71.3800	10.112413	94.790978
71.3900	10.112413	95.073126
71.4000	10.112413	95.457528
71.4100	10.112413	95.959313
71.4200	10.112413	96.564626
71.4300	10.112413	97.239638
71.4400	10.112413	97.943157
71.4500	10.112413	98.638787
71.4600	10.112413	99.303227
71.4700	10.112413	99.928822
71.4800	10.112413	100.520543
71.4900	10.112413	101.089259
71.5000	10.112413	101.644213
71.5100	10.112413	102.187577
71.5200	10.112413	102.712964
71.5300	10.112413	103.208257
71.5400	10.112413	103.661472
71.5500	10.112413	104.067284
71.5600	10.112413	104.431617
71.5700	10.112413	104.772318
71.5800	10.112413	105.115345
71.5900	10.112413	105.487460
71.6000	10.112413	105.907717
71.6100	10.112413	106.380582
71.6200	10.112413	106.893144
71.6300	10.112413	107.417675
71.6400	10.112413	107.919096
71.6500	10.112413	108.365332
71.6600	10.112413	108.737492
71.6700	10.112413	109.036695
71.6800	10.112413	109.285251
71.6900	10.112413	109.521479
71.7000	10.112413	109.789365
71.7100	10.112413	110.125801
71.7200	10.112413	110.549011
71.7300	10.112413	111.051535
71.7400	10.112413	111.599979
71.7500	10.112413	112.141892
71.7600	10.112413	112.618194
71.7700	10.112413	112.977999
71.7800	10.112413	113.192028
71.7900	10.112413	113.261110
71.8000	10.112413	113.217575
71.8100	10.112413	113.119120
71.8200	10.112413	113.036667
71.8300	10.112413	113.039122
71.8400	10.112413	113.178625
71.8500	10.112413	113.479604
71.8600	10.112413	113.933876
71.8700	10.112413	114.502549
71.8800	10.112413	115.123923
71.8900	10.112413	115.725393
71.9000	10.112413	116.236745
71.9100	10.112413	116.602283
71.9200	10.112413	116.789778
71.9300	10.112413	116.795093
71.9400	10.112413	116.642207
71.9500	10.112413	116.379079
71.9600	10.112413	116.070226
71.9700	10.112413	115.787109
71.9800	10.112413	115.597489
71.9900	10.112413	115.554981
72.0000	10.112413	115.690083
72.0100	10.112413	116.004038
72.0200	10.112413	116.466799
72.0300	10.112413	117.020064
72.0400	10.112413	117.585632
72.0500	10.112413	118.078344
72.0600	10.112413	118.421741
72.0700	10.112413	118.563548
72.0800	10.112413	118.487656
72.0900	10.112413	118.219484
72.1000	10.112413	117.822797
72.1100	10.112413	117.387834
72.1200	10.112413	117.012744
72.1300	10.112413	116.782220
72.1400	10.112413	116.748250
72.1500	10.112413	116.917840
72.1600	10.112413	117.251084
72.1700	10.112413	117.670569
72.1800	10.112413	118.080187
72.1900	10.112413	118.388874
72.2000	10.112413	118.533302
72.2100	10.112413	118.493591
72.2200	10.112413	118.297722
72.2300	10.112413	118.013306
72.2400	10.112413	117.728696
72.2500	10.112413	117.528451
72.2600	10.112413	117.469821
72.2700	10.112413	117.566813
72.2800	10.112413	117.786381
72.2900	10.112413	118.057903
72.3000	10.112413	118.293821
72.3100	10.112413	118.415588
72.3200	10.112413	118.377411
72.3300	10.112413	118.181012
72.3400	10.112413	117.876879
72.3500	10.112413	117.551259
72.3600	10.112413	117.302208
72.3700	10.112413	117.211281
72.3800	10.112413	117.318878
72.3900	10.112413	117.610482
72.4000	10.112413	118.018114
72.4100	10.112413	118.437118
72.4200	10.112413	118.754027
72.4300	10.112413	118.877992
72.4400	10.112413	118.767019
72.4500	10.112413	118.441489
72.4600	10.112413	117.980811
72.4700	10.112413	117.503685
72.4800	10.112413	117.136849
72.4900	10.112413	116.980483
72.5000	10.112413	117.080908
72.5100	10.112413	117.416948
72.5200	10.112413	117.904125
72.5300	10.112413	118.415933
72.5400	10.112413	118.816609
72.5500	10.112413	118.996624
72.5600	10.112413	118.901351
72.5700	10.112413	118.545206
72.5800	10.112413	118.007516
72.5900	10.112413	117.411316
72.6000	10.112413	116.890903
72.6100	10.112413	116.556918
72.6200	10.112413	116.468284
72.6300	10.112413	116.618308
72.6400	10.112413	116.938274
72.6500	10.112413	117.317090
72.6600	10.112413	117.631215
72.6700	10.112413	117.776556
72.6800	10.112413	117.693732
